<?xml version="1.0" encoding="utf-8"?>
<!-- Generator: Adobe Illustrator 26.4.1, SVG Export Plug-In . SVG Version: 6.00 Build 0)  -->
<svg version="1.1" id="Layer_1" xmlns="http://www.w3.org/2000/svg" xmlns:xlink="http://www.w3.org/1999/xlink" x="0px" y="0px"
	 viewBox="0 0 486.8 215" style="enable-background:new 0 0 486.8 215;" xml:space="preserve">
<style type="text/css">
	.st0{fill:#454B4D;}
	.st1{fill:#464B4D;}
	.st2{fill:#4D5254;}
	.st3{fill:#454A4D;}
	.st4{fill:#454A4C;}
	.st5{fill:#F7941D;}
	.st6{fill:#C4C4C4;}
	.st7{fill:#D5D5D5;}
	.st8{fill:#1C75BC;}
</style>
<path class="st8" d="M270.4,119.2c35.3,0,70.5-0.1,105.8,0.1c7.3,0,12.2-2.5,16.2-8.5c6.1-9.1,15.3-13.5,26-13.2
	c18.8,0.5,36.3,5.7,52.3,15.8c1.1,0.7,2.2,1.5,3.1,2.5c6.2,5.9,6.1,11.8-0.3,17.4c-4.5,4-9.8,6.8-15.4,9
	c-11.9,4.8-24.2,8.4-37.2,8.9c-12.4,0.5-22.5-4-29.4-14.5c-3.5-5.2-8.1-7.3-14.3-7.2c-77.2,0.6-154.3,1.2-231.5,1.7
	c-6.3,0-6.3,0-4.9-6.1c11-46,40.4-73.7,85.8-85.2c2.6-0.7,6,0.3,7.5-1.7c1.4-1.9-1.3-4.4-1.5-6.9c-0.7-7,2-12.6,8-15.8
	c5.7-3,12.4-2.4,17.3,1.7c4.9,4,7.3,11.4,4.5,17.1c-1.9,4-0.8,4.4,2.8,5.1c41,7,68.3,31.1,84.9,68.5c1.8,4.1,1.2,4.9-3.4,5.3
	c-7.2,0.6-10.4-2.1-13.6-8.6C305.6,49,234,34.8,185.9,74.8c-12.1,10.1-21.2,22.3-26.9,37.1c-2.2,5.6-2.2,5.7,3.7,5.7
	c35.9,0,71.8,0,107.8,0C270.4,118.1,270.4,118.6,270.4,119.2z"/>
<path class="st5" d="M7.2,195.9c1.5-1.7,3.4-0.9,5.2-0.9c15.6-0.1,31.3,0,46.9,0c1.3,0,2.7,0,4,0c2.2-0.1,4.1-0.8,4.2-3.3
	c0.1-2.7-1.9-3.7-4.3-3.8c-5.6-0.3-11.3-0.6-16.9-0.9c-11.1-0.6-22.3-1-33.4-1.7c-1.9-0.1-3.9,0.2-5.7-1.1c1.4-2.2,3.4-1.4,5.1-1.5
	c16.6-1,33.2-1.9,49.8-2.8c2.6-0.1,5.5-0.2,5.4-3.6c0-3.4-2.9-3.5-5.5-3.5c-16.5,0-32.9,0-49.4,0c-1.7,0-3.6,0.7-5.7-1.2
	c2.6-1.4,5.3-1.1,7.6-1.4c21.3-2.2,42.7-4,64-6.4c8.9-1,16.5,1.8,23.5,6.5c9.8,6.6,20.3,8.7,32.1,8.6c64.4-0.7,128.7-0.9,193.1-1.4
	c2.2,0,25.9,1.6,25.2-3.3c-0.2-1.1,0.7-1.3,1.6-1.4c0.3,0,0.7-0.1,1,0c3.7,0.5,9-2,10.7,1c2.4,4.3,1.5,10,0.9,15.2
	c-0.3,2.8-2.9,1.7-4.5,1.7c-19.6-0.1-59.2-0.2-78.9-0.3c-48.7-0.3-97.5-0.4-146.2-1.2c-13.4-0.2-25.8,1.3-36.8,9.5
	c-2,1.5-4.4,2.2-6.6,3.4c-7.6,4.2-15.6,2-23.5,1.3c-19.4-1.7-38.7-3.8-58-5.7C10.5,197.3,8.5,197.8,7.2,195.9z"/>
<path class="st6" d="M243.8,58.3c21.2-1.5,40.4,4,57.4,16.7c11.6,8.6,20.8,19.4,27,32.5c2.4,5.1,1.9,5.1-3.5,5.7
	c-6.7,0.7-10-1.9-13.2-7.9c-13.4-24.5-33.7-39.8-61.8-44.1c-3.6-0.6-7.2-0.8-10.9-0.9C239.6,57.1,242.6,59.9,243.8,58.3z"/>
<path class="st7" d="M243.8,58.3c-1.2,1.8-3.8,0.1-4.9,1.9c-2.6,0-5.2,0-7.8,0C235.3,58.8,239.5,57.9,243.8,58.3z"/>
<g>
	<path class="st0" d="M327.3,149.9c3.6-3.4,7.1-4.1,10.7-2.4c3.8,1.8,4.6,5.3,4.6,9.1c0,3,0.1,6,0,9c0,1.5,0.3,2.5,1.9,2.7
		c2.1,0.3,1.7,1.8,1.7,3.2c-0.1,1.7-1.5,1.2-2.4,1.2c-3,0.1-6,0-9,0c-0.8,0-1.9,0.3-2-1c0-1.1-0.8-2.8,1-3.3c2-0.5,2-1.9,1.9-3.4
		c-0.1-3.1-0.1-6.2-0.3-9.3c-0.2-2.7-2-3.9-4.7-3.6c-2.5,0.3-3.7,1.7-3.6,4.3c0.1,2.6,0,5.1,0,7.7c0,1.9-0.4,3.8,2.3,4.5
		c1.3,0.3,0.6,1.9,0.7,2.8c0.1,1.3-1,1.2-1.8,1.2c-3.2,0-6.4,0-9.6,0c-1,0-2,0-1.9-1.5c0.1-1.1-0.5-2.5,1.3-2.8c2-0.3,2-1.7,2-3.3
		c0-7.4,0-14.7,0-22.1c0-1.5,0.1-2.7-2-2.7c-2.1,0-1.6-1.8-1.7-3.1c-0.1-1.5,0.9-1.7,2.1-1.7c0.2,0,0.4,0,0.6,0
		c8.1-0.2,8.1-0.2,8.1,7.9C327.3,145.3,327.3,147.2,327.3,149.9z"/>
	<path class="st0" d="M147.9,146.8c1.8-0.2,3.5,0.2,5.3,0.7c4.2,1.1,5.3,3.1,4.5,7.3c-0.2,1.3-1,1.2-1.8,1.2
		c-1.2-0.1-3.1,0.7-3.4-1.4c-0.3-2.4-2-2.8-3.9-3c-1.9-0.2-3.9,0.1-4.3,2.3c-0.4,2.3,1.6,2.8,3.2,3.2c2.4,0.6,4.8,1,7,2.1
		c5.2,2.6,5.6,8.9,0.7,12.2c-4.1,2.8-12.1,2.5-16.2-0.4c-2.2-1.6-1.6-3.9-1.3-5.9c0.3-1.8,2.3-0.6,3.6-0.9c1-0.2,1.5,0.5,1.7,1.4
		c0.4,2.3,2,2.8,4,2.9c1.9,0.1,4-0.2,4.4-2.3c0.5-2.4-1.6-2.9-3.4-3.4c-1.9-0.6-3.9-1.1-5.8-1.8c-3-1.2-5.1-3.1-4.9-6.7
		c0.1-3.1,2-5.7,5.3-6.9C144.4,146.9,146.1,146.7,147.9,146.8z"/>
	<path class="st0" d="M303.9,146.8c1.7-0.2,3.5,0.3,5.4,0.8c3.7,1.1,5,3.5,4,7.3c-0.3,1.3-1.2,1.1-1.9,1c-1.1-0.1-2.6,0.7-3-1.3
		c-0.6-3.1-3.1-3.2-5.5-3c-1.5,0.1-2.7,1-2.9,2.5c-0.2,1.5,0.9,2.3,2.3,2.6c2.2,0.6,4.3,1.1,6.5,1.8c3.8,1.3,5.7,3.8,5.6,6.9
		c-0.1,3.3-2.3,5.9-6,7.1c-4,1.3-8,0.9-11.9-0.8c-2.1-0.9-3.4-2.2-2.9-4.6c0.2-1.1-1-2.9,1.2-3c1.6-0.1,3.6-0.8,4.3,1.9
		c0.7,2.7,6.1,3.4,7.7,1.2c1.1-1.5,0.7-3-1-3.7c-1.7-0.8-3.6-1.2-5.5-1.7c-5.5-1.6-7.8-4.3-7.2-8.3c0.6-4.1,4.4-6.8,9.5-6.9
		C302.9,146.8,303.2,146.8,303.9,146.8z"/>
	<path class="st0" d="M171.7,152c0,4.6,0,9.2,0,13.8c0,1.3,0.2,2.3,1.7,2.5c2.1,0.3,1.6,1.9,1.6,3.2c0,1.8-1.4,1.2-2.4,1.2
		c-3,0.1-6,0.1-9,0c-0.9,0-2.4,0.5-2.3-1.3c0-1.2-0.6-2.7,1.4-3c1.8-0.3,2-1.5,2-3c-0.1-7.5,0-15,0-22.4c0-1.4,0-2.5-1.9-2.6
		c-2.1,0-1.7-1.7-1.8-3c-0.1-1.7,1-1.7,2.3-1.8c8.4-0.4,8.4-0.4,8.4,8.1C171.7,146.4,171.7,149.2,171.7,152z"/>
	<path class="st1" d="M286.6,157.6c0,2.2,0,4.5,0,6.7c0,1.9-0.5,3.9,2.4,4.3c1.6,0.2,0.9,1.9,0.9,3c0,1.3-1.1,1.1-1.9,1.1
		c-3.3,0-6.6,0-9.9,0c-1,0-2,0.1-1.9-1.4c0.1-1.1-0.5-2.6,1.2-2.8c2.2-0.3,2.3-1.7,2.2-3.4c-0.1-2.9,0-5.8,0-8.6
		c0-2.2,0.8-4.8-2.9-5.1c-1.3-0.1-0.7-1.8-0.8-2.8c-0.1-1.1,0.5-1.5,1.5-1.5c0.2,0,0.4,0,0.6,0c8.5-0.5,8.5-0.5,8.5,8
		C286.6,155.9,286.6,156.8,286.6,157.6z"/>
	<path class="st0" d="M187.3,157.6c0,2.2,0,4.5,0,6.7c0,1.9-0.3,3.8,2.4,4.3c1.5,0.3,0.8,2,0.8,3.1c0,1.3-1.1,1-1.9,1
		c-3.2,0-6.4,0-9.6,0c-0.8,0-2.2,0.4-2.1-1.1c0.1-1.1-0.8-2.7,1.2-3.1c1.9-0.3,2.3-1.5,2.2-3.2c-0.1-3.6-0.1-7.3,0-10.9
		c0-1.4-0.2-2.7-1.9-2.8c-2.2-0.1-1.8-1.6-1.8-3c-0.1-1.9,1.3-1.6,2.4-1.6c8.3-0.3,8.3-0.3,8.3,8
		C187.3,155.9,187.3,156.7,187.3,157.6z"/>
	<path class="st2" d="M282.9,135.6c2.2-0.2,3.8-0.4,3.9,2.7c0.1,3.4-1.9,2.7-3.8,2.8c-2.1,0.1-3.5,0.1-3.5-2.9
		C279.5,135.2,281.1,135.3,282.9,135.6z"/>
	<path class="st2" d="M183.9,141.1c-2.1,0.2-3.8,0.4-3.8-2.8c0-3.1,1.8-2.6,3.7-2.7c2,0,3.6-0.2,3.6,2.8
		C187.4,141.4,185.9,141.3,183.9,141.1z"/>
	<path class="st0" d="M273.3,168.5c-2.2-0.4-2.1-1.9-2.1-3.6c0-7,0-14.1,0-21.1c0-8.5,0-8.5-8.4-8.2c-1.1,0-2.5-0.4-2.4,1.5
		c0.1,1.4-0.6,3.3,1.8,3.3c1.9,0,2,1,2,2.5c-0.1,2,0,4,0,6.1c-6.7-3.5-11.4-2.8-14.2,2.4c-2.8,5.4-2.9,11.1-0.5,16.7
		c2.1,4.9,8,6.7,12.4,4.2c1.1-0.6,2.5-3.4,3.4,0.2c0,0.2,0.8,0.2,1.2,0.2c2,0,4.1,0,6.1,0c0.8,0,1.9,0.2,1.9-1.1
		C274.4,170.5,275.2,168.8,273.3,168.5z M261.1,167.7c-2.2,0.6-4.2-0.1-5.1-2.2c-1.6-3.8-1.4-7.7,0.3-11.4c0.9-2,2.9-2.4,4.9-1.8
		c1.8,0.6,3.1,1.7,3,4c-0.1,1.4,0,2.8,0,4.1c0,1.1-0.1,2.1,0,3.2C264.4,166,263.1,167.2,261.1,167.7z"/>
	<path class="st3" d="M218.3,168.4c-2-0.3-2.1-1.6-2.1-3.3c0.1-7.3,0-14.5,0-21.8c0-7.9,0-8-7.8-7.8c-1.1,0-2.8-0.7-2.8,1.5
		c0,1.6-0.5,3.4,2.1,3.4c1.3,0,1.6,0.8,1.6,1.9c0,2.1,0,4.2,0,6.9c-7.6-5.4-14.4-0.9-15.8,6c-0.6,3-0.7,5.9-0.3,8.9
		c1.2,7.8,8.9,12.4,16.3,6.4c0.1,2.3,1.7,2.3,3.4,2.2c1.5,0,3,0,4.5,0c1,0,2.3,0.5,2.3-1.3C219.7,170.2,220.3,168.7,218.3,168.4z
		 M205.9,167.8c-2.1,0.4-3.9-0.3-4.8-2.4c-1.6-3.8-1.4-7.7,0.4-11.4c0.9-1.9,2.8-2.3,4.7-1.7c1.7,0.5,3.1,1.5,3.1,3.6
		c0,1.5,0,3,0,4.5c0,1.1-0.1,2.1,0,3.2C209.5,166.1,208,167.4,205.9,167.8z"/>
	<path class="st0" d="M230.8,162.2c1.9,0.1,3.9,0,5.8,0c1.2,0,2.4,0,3.5,0c4.9,0,4.9,0,4.4-5c0-0.4-0.1-0.8-0.2-1.3
		c-0.6-4.1-2.5-7.3-6.7-8.6c-4.2-1.3-8.3-1.1-11.7,2c-4.9,4.4-5.6,14-1.5,19.4c3.7,4.9,12,6,17.9,2.6c1.8-1.1,1.2-2.1,0.7-3.4
		c-0.6-1.4-1.2-2.1-2.8-1.2c-0.9,0.5-2,0.8-3,1c-3.7,0.7-6.6-0.8-7.6-3.7C229.2,162.9,229.1,162.1,230.8,162.2z M233.5,152.1
		c2.5,0,3.9,1.4,3.8,3.7c-0.2,3-2.7,0.6-3.9,1.6c-1.3-0.8-3.7,1-3.8-1.2C229.4,154.1,230.8,152.2,233.5,152.1z"/>
</g>
</svg>
