<?xml version="1.0" encoding="utf-8"?>
<!-- Generator: Adobe Illustrator 26.4.1, SVG Export Plug-In . SVG Version: 6.00 Build 0)  -->
<svg version="1.1" id="Layer_1" xmlns="http://www.w3.org/2000/svg" xmlns:xlink="http://www.w3.org/1999/xlink" x="0px" y="0px"
	 viewBox="0 0 501.9 183.4" style="enable-background:new 0 0 501.9 183.4;" xml:space="preserve">
<style type="text/css">
	.st0{fill:#454B4D;}
	.st1{fill:#464B4D;}
	.st2{fill:#4D5254;}
	.st3{fill:#454A4D;}
	.st4{fill:#454A4C;}
	.st5{fill:#F7941D;}
	.st6{fill:#C4C4C4;}
	.st7{fill:#D5D5D5;}
	.st8{fill:#1C75BC;}
</style>
<path class="st3" d="M284.3,120.5c35.3,0,70.5-0.1,105.8,0.1c7.3,0,12.2-2.5,16.2-8.5c6.1-9.1,15.3-13.5,26-13.2
	c18.8,0.5,36.3,5.7,52.3,15.8c1.1,0.7,2.2,1.5,3.1,2.5c6.2,5.9,6.1,11.8-0.3,17.4c-4.5,4-9.8,6.8-15.4,9
	c-11.9,4.8-24.2,8.4-37.2,8.9c-12.4,0.5-22.5-4-29.4-14.5c-3.5-5.2-8.1-7.3-14.3-7.2c-77.2,0.6-154.3,1.2-231.5,1.7
	c-6.3,0-6.3,0-4.9-6.1c11-46,40.4-73.7,85.8-85.2c2.6-0.7,6,0.3,7.5-1.7c1.4-1.9-1.3-4.4-1.5-6.9c-0.7-7,2-12.6,8-15.8
	c5.7-3,12.4-2.4,17.3,1.7c4.9,4,7.3,11.4,4.5,17.1c-1.9,4-0.8,4.4,2.8,5.1c41,7,68.3,31.1,84.9,68.5c1.8,4.1,1.2,4.9-3.4,5.3
	c-7.2,0.6-10.4-2.1-13.6-8.6c-27.5-55.4-99-69.6-147.2-29.6c-12.1,10.1-21.2,22.3-26.9,37.1c-2.2,5.6-2.2,5.7,3.7,5.7
	c35.9,0,71.8,0,107.8,0C284.3,119.4,284.3,119.9,284.3,120.5z"/>
<path class="st6" d="M10.1,160.1c1.5-1.7,3.4-0.9,5.2-0.9c15.6-0.1,31.3,0,46.9,0c1.3,0,2.7,0,4,0c2.2-0.1,4.1-0.8,4.2-3.3
	c0.1-2.7-1.9-3.7-4.3-3.8c-5.6-0.3-11.3-0.6-16.9-0.9c-11.1-0.6-22.3-1-33.4-1.7c-1.9-0.1-3.9,0.2-5.7-1.1c1.4-2.2,3.4-1.4,5.1-1.5
	c16.6-1,33.2-1.9,49.8-2.8c2.6-0.1,5.5-0.2,5.4-3.6c0-3.4-2.9-3.5-5.5-3.5c-16.5,0-32.9,0-49.4,0c-1.7,0-3.6,0.7-5.7-1.2
	c2.6-1.4,5.3-1.1,7.6-1.4c21.3-2.2,42.7-4,64-6.4c8.9-1,16.5,1.8,23.5,6.5c9.8,6.6,20.3,8.7,32.1,8.6c64.4-0.7,128.7-0.9,193.1-1.4
	c2.2,0,25.9,1.6,25.2-3.3c-0.2-1.1,0.7-1.3,1.6-1.4c0.3,0,0.7-0.1,1,0c3.7,0.5,9-2,10.7,1c2.4,4.3,1.5,10,0.9,15.2
	c-0.3,2.8-2.9,1.7-4.5,1.7c-19.6-0.1-59.2-0.2-78.9-0.3c-48.7-0.3-97.5-0.4-146.2-1.2c-13.4-0.2-25.8,1.3-36.8,9.5
	c-2,1.5-4.4,2.2-6.6,3.4c-7.6,4.2-15.6,2-23.5,1.3c-19.4-1.7-38.7-3.8-58-5.7C13.3,161.5,11.3,161.9,10.1,160.1z"/>
<path class="st6" d="M257.7,59.6c21.2-1.5,40.4,4,57.4,16.7c11.6,8.6,20.8,19.4,27,32.5c2.4,5.1,1.9,5.1-3.5,5.7
	c-6.7,0.7-10-1.9-13.2-7.9c-13.4-24.5-33.7-39.8-61.8-44.1c-3.6-0.6-7.2-0.8-10.9-0.9C253.4,58.4,256.4,61.2,257.7,59.6z"/>
<path class="st7" d="M257.7,59.6c-1.2,1.8-3.8,0.1-4.9,1.9c-2.6,0-5.2,0-7.8,0C249.1,60.1,253.3,59.1,257.7,59.6z"/>
</svg>
