<?xml version="1.0" encoding="utf-8"?>
<!-- Generator: Adobe Illustrator 26.4.1, SVG Export Plug-In . SVG Version: 6.00 Build 0)  -->
<svg version="1.1" id="Layer_1" xmlns="http://www.w3.org/2000/svg" xmlns:xlink="http://www.w3.org/1999/xlink" x="0px" y="0px"
	 viewBox="0 0 344.2 79.2" style="enable-background:new 0 0 344.2 79.2;" xml:space="preserve">
<style type="text/css">
	.st0{fill:#454B4D;}
	.st1{fill:#464B4D;}
	.st2{fill:#4D5254;}
	.st3{fill:#454A4D;}
	.st4{fill:#454A4C;}
	.st5{fill:#F7941D;}
	.st6{fill:#C4C4C4;}
	.st7{fill:#D5D5D5;}
	.st8{fill:#1C75BC;}
</style>
<path class="st0" d="M303,34c5.6-5.2,11-6.3,16.6-3.7c5.9,2.7,7.2,8.2,7.2,14.2c0,4.6,0.2,9.3,0,13.9c-0.1,2.3,0.4,3.9,3,4.2
	c3.2,0.4,2.7,2.8,2.6,4.9c-0.1,2.7-2.3,1.8-3.8,1.9c-4.7,0.1-9.3,0.1-14,0c-1.2,0-3,0.5-3-1.5c0-1.8-1.3-4.3,1.6-5.1
	c3.1-0.8,3.1-2.9,3-5.3c-0.2-4.8-0.1-9.6-0.5-14.4c-0.3-4.2-3-6.1-7.2-5.6c-3.9,0.5-5.8,2.6-5.6,6.7c0.2,4,0,8,0,11.9
	c0,2.9-0.7,5.9,3.6,7c2,0.5,0.9,2.9,1,4.4c0.1,2-1.5,1.9-2.8,1.9c-5,0-10,0-15,0c-1.6,0-3.1,0-2.9-2.3c0.2-1.7-0.8-3.9,1.9-4.3
	c3.2-0.5,3.2-2.6,3.2-5.1c-0.1-11.5-0.1-22.9,0-34.4c0-2.3,0.2-4.2-3.1-4.3c-3.3,0-2.5-2.8-2.6-4.9c-0.1-2.4,1.5-2.7,3.3-2.6
	c0.3,0,0.7,0,1,0C303,11.5,303,11.5,303,24C303,26.9,303,29.9,303,34z"/>
<path class="st0" d="M24.5,29.2c2.7-0.3,5.5,0.3,8.2,1c6.5,1.8,8.3,4.8,7,11.3c-0.4,2-1.6,1.9-2.8,1.8c-1.9-0.2-4.8,1.1-5.2-2.1
	c-0.5-3.7-3.1-4.4-6-4.6c-3-0.3-6,0.1-6.7,3.6c-0.7,3.6,2.5,4.3,5,5c3.7,0.9,7.5,1.6,10.9,3.3c8.1,4.1,8.7,13.8,1.1,18.9
	c-6.4,4.3-18.8,3.9-25.1-0.7c-3.5-2.5-2.5-6.1-2-9.1c0.5-2.8,3.6-1,5.6-1.4c1.6-0.3,2.4,0.7,2.6,2.2c0.6,3.5,3.2,4.4,6.2,4.5
	c3,0.1,6.2-0.2,6.9-3.5c0.8-3.7-2.5-4.5-5.2-5.3c-3-0.9-6.1-1.7-9-2.8C11.2,49.6,8,46.6,8.3,41c0.2-4.9,3.1-8.8,8.2-10.7
	C19,29.3,21.7,29,24.5,29.2z"/>
<path class="st0" d="M266.6,29.2c2.6-0.4,5.5,0.4,8.4,1.2c5.8,1.7,7.7,5.5,6.3,11.3c-0.5,2-1.8,1.7-3,1.6c-1.7-0.1-4.1,1.1-4.7-2
	c-1-4.8-4.8-4.9-8.6-4.7c-2.4,0.2-4.2,1.5-4.5,3.9c-0.3,2.3,1.5,3.5,3.6,4.1c3.3,0.9,6.8,1.7,10,2.8c5.9,2.1,8.8,5.8,8.7,10.8
	c-0.1,5.1-3.5,9.2-9.3,11c-6.3,2-12.4,1.4-18.5-1.2c-3.2-1.4-5.4-3.4-4.5-7.2c0.4-1.6-1.6-4.5,1.8-4.6c2.5-0.1,5.5-1.3,6.7,3
	c1.1,4.2,9.4,5.3,12,1.8c1.8-2.3,1.1-4.6-1.5-5.7c-2.7-1.2-5.6-1.8-8.5-2.7c-8.5-2.6-12.1-6.7-11.2-12.9c1-6.4,6.8-10.5,14.8-10.7
	C265.1,29.2,265.6,29.2,266.6,29.2z"/>
<path class="st0" d="M61.3,37.3c0,7.1,0.1,14.3,0,21.4c0,2,0.3,3.6,2.6,3.9c3.2,0.4,2.5,2.9,2.5,4.9c0,2.8-2.2,1.9-3.7,1.9
	c-4.6,0.1-9.3,0.1-14,0c-1.5,0-3.7,0.8-3.6-2c0.1-1.8-1-4.2,2.1-4.7c2.8-0.4,3.1-2.3,3-4.7c-0.1-11.6-0.1-23.2,0-34.8
	c0-2.1,0-3.9-3-4c-3.3,0-2.7-2.6-2.8-4.7c-0.1-2.7,1.6-2.7,3.6-2.8c13.1-0.6,13.1-0.6,13.1,12.6C61.3,28.7,61.3,33,61.3,37.3z"/>
<path class="st1" d="M239.8,46c0,3.5,0,7,0,10.4c0,2.9-0.8,6,3.8,6.7c2.5,0.4,1.3,3,1.4,4.6c0.1,2-1.7,1.7-2.9,1.7
	c-5.1,0-10.3,0-15.4,0c-1.5,0-3.2,0.1-3-2.2c0.1-1.7-0.8-4,1.9-4.4c3.4-0.5,3.5-2.7,3.4-5.3c-0.1-4.5,0-8.9-0.1-13.4
	c0-3.4,1.3-7.5-4.6-7.9c-2-0.1-1-2.8-1.2-4.3c-0.2-1.7,0.8-2.4,2.4-2.4c0.3,0,0.7,0,1,0c13.3-0.8,13.3-0.8,13.3,12.5
	C239.8,43.4,239.8,44.7,239.8,46z"/>
<path class="st0" d="M85.6,45.9c0,3.5,0,7,0,10.4c0,3-0.5,5.9,3.8,6.7c2.4,0.5,1.2,3.1,1.2,4.7c0,2-1.7,1.6-3,1.6
	c-5,0-10,0.1-14.9,0c-1.3,0-3.4,0.7-3.3-1.8c0.1-1.7-1.3-4.3,1.9-4.8c2.9-0.5,3.5-2.3,3.4-5c-0.2-5.6-0.1-11.3,0-16.9
	c0-2.2-0.3-4.2-2.9-4.3c-3.4-0.2-2.7-2.6-2.8-4.6c-0.1-2.9,2-2.5,3.8-2.5c12.9-0.4,12.9-0.4,12.9,12.4
	C85.6,43.3,85.6,44.6,85.6,45.9z"/>
<path class="st2" d="M234.1,11.8c3.4-0.3,5.9-0.6,6,4.2c0.1,5.3-3,4.2-6,4.4c-3.3,0.2-5.4,0.2-5.4-4.4
	C228.8,11.2,231.2,11.4,234.1,11.8z"/>
<path class="st2" d="M80.3,20.3c-3.3,0.3-5.9,0.6-5.9-4.4c0.1-4.9,2.9-4.1,5.8-4.2c3.1-0.1,5.6-0.3,5.6,4.4
	C85.8,20.8,83.4,20.7,80.3,20.3z"/>
<path class="st0" d="M219.1,62.9c-3.5-0.6-3.3-3-3.3-5.6c0.1-10.9,0-21.9,0-32.8c0-13.2,0-13.2-13-12.8c-1.7,0.1-4-0.6-3.8,2.4
	c0.1,2.2-0.9,5.1,2.8,5.1c2.9,0,3.2,1.6,3.1,3.8c-0.1,3.1,0,6.2,0,9.5c-10.4-5.5-17.8-4.3-22,3.8c-4.4,8.4-4.5,17.3-0.8,25.9
	c3.3,7.6,12.5,10.4,19.3,6.5c1.7-1,3.9-5.2,5.3,0.4c0.1,0.2,1.2,0.3,1.9,0.3c3.2,0,6.3,0.1,9.5,0c1.2,0,3,0.4,2.9-1.7
	C220.9,66,222.2,63.4,219.1,62.9z M200.1,61.7c-3.4,0.9-6.5-0.2-7.9-3.4c-2.6-5.9-2.2-12,0.4-17.7c1.4-3.1,4.6-3.8,7.7-2.8
	c2.9,0.9,4.9,2.7,4.6,6.1c-0.1,2.1,0,4.3,0,6.4c0,1.7-0.2,3.3,0,4.9C205.4,59,203.2,60.9,200.1,61.7z"/>
<path class="st3" d="M133.7,62.8c-3.1-0.4-3.3-2.5-3.2-5.1c0.1-11.3,0-22.5,0-33.8c0-12.3,0-12.3-12.1-12.1c-1.7,0-4.4-1.1-4.4,2.3
	c0,2.4-0.7,5.3,3.3,5.2c2,0,2.5,1.2,2.5,2.9c0,3.3,0,6.5,0,10.7c-11.8-8.4-22.4-1.3-24.5,9.4c-0.9,4.6-1.1,9.2-0.4,13.8
	c1.8,12.2,13.9,19.3,25.3,9.9c0.2,3.6,2.7,3.5,5.3,3.5c2.3-0.1,4.7,0.1,7,0c1.5-0.1,3.6,0.7,3.6-2C135.9,65.6,136.8,63.2,133.7,62.8
	z M114.4,61.8c-3.2,0.7-6.1-0.5-7.4-3.7c-2.5-6-2.1-12,0.6-17.8c1.4-2.9,4.4-3.5,7.3-2.7c2.7,0.8,4.8,2.4,4.8,5.6c0,2.3,0,4.6,0,7
	c0,1.7-0.1,3.3,0,5C120.1,59.2,117.7,61.1,114.4,61.8z"/>
<path class="st0" d="M153.2,53.1c3,0.2,6,0,9,0c1.8,0,3.7,0,5.5,0c7.6,0,7.6,0,6.8-7.8c-0.1-0.7-0.2-1.3-0.2-2
	c-0.9-6.4-3.9-11.3-10.3-13.3c-6.5-2-12.8-1.7-18.2,3.2c-7.6,6.9-8.8,21.7-2.3,30.2c5.7,7.6,18.7,9.3,27.7,4
	c2.8-1.6,1.9-3.2,1.1-5.3c-0.9-2.2-1.8-3.3-4.3-1.8c-1.4,0.8-3.1,1.3-4.7,1.6c-5.7,1.1-10.3-1.3-11.8-5.8
	C150.6,54.2,150.5,53,153.2,53.1z M157.3,37.5c3.9-0.1,6.1,2.2,5.9,5.8c-0.2,4.6-4.2,1-6.1,2.5c-2-1.3-5.7,1.6-6-1.9
	C150.9,40.5,153.1,37.5,157.3,37.5z"/>
</svg>
